<svg width="14" height="10" viewBox="0 0 14 10" fill="none" xmlns="http://www.w3.org/2000/svg">
<path d="M6.09173 8.60656L0.301065 1.99855C-0.382321 1.22107 0.173081 4.43233e-07 1.21023 4.43233e-07H12.7916C13.0237 -0.00019824 13.2509 0.0664029 13.4461 0.191829C13.6413 0.317254 13.7961 0.496187 13.892 0.7072C13.988 0.918213 14.021 1.15236 13.987 1.3816C13.9531 1.61085 13.8537 1.82546 13.7007 1.99976L7.91007 8.60536C7.79674 8.73483 7.65698 8.8386 7.50017 8.90969C7.34336 8.98079 7.17313 9.01758 7.0009 9.01758C6.82868 9.01758 6.65844 8.98079 6.50163 8.90969C6.34482 8.8386 6.20506 8.73483 6.09173 8.60536V8.60656Z" fill="#8C30F5"/>
</svg>
