<svg width="20" height="20" viewBox="0 0 20 20" fill="none" xmlns="http://www.w3.org/2000/svg">
<path d="M4.5 0C6.46 0 8.13 1.25 8.74 3H20V6H16V9H13V6H8.74C8.13 7.75 6.46 9 4.5 9C2 9 0 7 0 4.5C0 2 2 0 4.5 0ZM4.5 3C4.10218 3 3.72064 3.15804 3.43934 3.43934C3.15804 3.72064 3 4.10218 3 4.5C3 4.89782 3.15804 5.27936 3.43934 5.56066C3.72064 5.84196 4.10218 6 4.5 6C4.89782 6 5.27936 5.84196 5.56066 5.56066C5.84196 5.27936 6 4.89782 6 4.5C6 4.10218 5.84196 3.72064 5.56066 3.43934C5.27936 3.15804 4.89782 3 4.5 3ZM4.5 11C6.46 11 8.13 12.25 8.74 14H20V17H18V20H16V17H14V20H11V17H8.74C8.13 18.75 6.46 20 4.5 20C2 20 0 18 0 15.5C0 13 2 11 4.5 11ZM4.5 14C4.10218 14 3.72064 14.158 3.43934 14.4393C3.15804 14.7206 3 15.1022 3 15.5C3 15.8978 3.15804 16.2794 3.43934 16.5607C3.72064 16.842 4.10218 17 4.5 17C4.89782 17 5.27936 16.842 5.56066 16.5607C5.84196 16.2794 6 15.8978 6 15.5C6 15.1022 5.84196 14.7206 5.56066 14.4393C5.27936 14.158 4.89782 14 4.5 14Z" fill="#8C30F5"/>
</svg>
