<svg width="16" height="19" viewBox="0 0 16 19" fill="none" xmlns="http://www.w3.org/2000/svg">
<path d="M8 19C12.411 19 16 15.411 16 11C16 7.64999 13.928 4.77899 11 3.58899V5.81199C11.9109 6.33791 12.6676 7.09405 13.1941 8.00461C13.7207 8.91517 13.9986 9.94815 14 11C14 14.309 11.309 17 8 17C4.691 17 2 14.309 2 11C2.00133 9.94813 2.2792 8.91511 2.80575 8.00453C3.3323 7.09396 4.08901 6.33783 5 5.81199V3.58899C2.072 4.77899 0 7.64999 0 11C0 15.411 3.589 19 8 19Z" fill="#FF0606"/>
<path d="M7 0H9V10H7V0Z" fill="#FF0606"/>
</svg>
