<svg width="28" height="29" viewBox="0 0 28 29" fill="none" xmlns="http://www.w3.org/2000/svg">
<path d="M13.877 28.0547C14.9285 28.0547 15.937 27.6852 16.6805 27.0276C17.4241 26.37 17.8418 25.4781 17.8418 24.548H9.91211C9.91211 25.4781 10.3298 26.37 11.0734 27.0276C11.8169 27.6852 12.8254 28.0547 13.877 28.0547ZM15.8495 1.92843C15.8771 1.68464 15.8467 1.43843 15.7602 1.20567C15.6737 0.97291 15.5329 0.758776 15.3471 0.577076C15.1612 0.395376 14.9344 0.250146 14.6812 0.15075C14.4279 0.0513539 14.154 0 13.877 0C13.5999 0 13.326 0.0513539 13.0727 0.15075C12.8195 0.250146 12.5927 0.395376 12.4068 0.577076C12.221 0.758776 12.0803 0.97291 11.9937 1.20567C11.9072 1.43843 11.8768 1.68464 11.9044 1.92843C9.66375 2.33153 7.64942 3.40712 6.20253 4.97308C4.75565 6.53904 3.96513 8.49914 3.96484 10.5215C3.96484 12.4466 2.97363 21.0414 0 22.7947H27.7539C24.7803 21.0414 23.7891 12.4466 23.7891 10.5215C23.7891 6.27843 20.3793 2.73672 15.8495 1.92843Z" fill="#8C30F5"/>
</svg>
