<svg width="48" height="17" viewBox="0 0 48 17" fill="none" xmlns="http://www.w3.org/2000/svg">
<path d="M0.1 2.36C1.84 2.06 2.92 2 5.7 1.96C4.28 5 2.52 9.78 1.62 12.4C1.28 13.38 0.88 14.54 0.88 15.32C0.88 16.16 1.26 16.74 2.46 16.74C2.44 16.6 2.44 16.44 2.44 16.3C2.44 14.98 2.86 13.62 3.44 11.5C4.56 7.42 5.72 4.1 6.58 1.96C7.06 1.96 7.54 1.98 8 1.98C9.3 1.98 10.5 1.86 11.42 1.04C9.48 1.02 7.72 0.599999 4.98 0.599999C2.22 0.599999 0.2 1.02 0.1 2.36ZM13.1605 9.02C13.1605 8.04 12.5405 7.8 11.9205 7.8C9.56047 7.8 6.84047 11.18 6.84047 13.56C6.84047 14.86 7.66047 15.88 9.28047 15.88C11.2605 15.88 13.3405 14.34 14.4205 11.94L14.1805 11.76C13.1805 13.68 11.4005 15.3 9.70047 15.3C8.46047 15.3 8.12047 14.44 8.12047 13.62C8.12047 13.42 8.14047 13.16 8.20047 12.9C10.4805 12.68 13.1605 11.06 13.1605 9.02ZM11.8605 8.42C12.2005 8.42 12.2805 8.58 12.2805 8.88C12.2805 10.6 9.72047 12.02 8.30047 12.52C8.84047 10.62 10.5805 8.42 11.8605 8.42ZM13.0402 14.86C13.2602 15.16 13.6802 15.3 14.1002 15.3C15.1402 13.54 16.9802 10.36 18.6402 10.36C19.1002 10.36 19.4402 10.6 19.4402 11.34C19.4402 12.28 18.8602 13.3 18.8602 14.12C18.8602 14.86 19.3202 15.4 20.2602 15.4C21.7602 15.4 22.8802 13.98 23.7202 12.02L23.5002 11.76C22.7602 13.24 21.7002 14.88 20.7002 14.88C20.3602 14.88 20.1002 14.68 20.1002 14.12C20.1002 13.14 20.9202 12.2 20.9202 10.96C20.9202 10.06 20.4802 9.16 19.4402 9.16C17.9202 9.16 16.3402 11.06 15.2802 12.68C15.6402 11.58 15.9202 10.46 15.9202 10.04C15.9202 9.72 15.7402 9.52 15.3802 9.52C15.0002 9.52 14.6202 9.76 14.4602 9.94C14.4402 11.68 13.0402 14.62 13.0402 14.86ZM23.5961 2.36C25.3361 2.06 26.4161 2 29.1961 1.96C27.7761 5 26.0161 9.78 25.1161 12.4C24.7761 13.38 24.3761 14.54 24.3761 15.32C24.3761 16.16 24.7561 16.74 25.9561 16.74C25.9361 16.6 25.9361 16.44 25.9361 16.3C25.9361 14.98 26.3561 13.62 26.9361 11.5C28.0561 7.42 29.2161 4.1 30.0761 1.96C30.5561 1.96 31.0361 1.98 31.4961 1.98C32.7961 1.98 33.9961 1.86 34.9161 1.04C32.9761 1.02 31.2161 0.599999 28.4761 0.599999C25.7161 0.599999 23.6961 1.02 23.5961 2.36ZM36.6566 9.02C36.6566 8.04 36.0366 7.8 35.4166 7.8C33.0566 7.8 30.3366 11.18 30.3366 13.56C30.3366 14.86 31.1566 15.88 32.7766 15.88C34.7566 15.88 36.8366 14.34 37.9166 11.94L37.6766 11.76C36.6766 13.68 34.8966 15.3 33.1966 15.3C31.9566 15.3 31.6166 14.44 31.6166 13.62C31.6166 13.42 31.6366 13.16 31.6966 12.9C33.9766 12.68 36.6566 11.06 36.6566 9.02ZM35.3566 8.42C35.6966 8.42 35.7766 8.58 35.7766 8.88C35.7766 10.6 33.2166 12.02 31.7966 12.52C32.3366 10.62 34.0766 8.42 35.3566 8.42ZM36.5362 14.86C36.7562 15.16 37.1762 15.3 37.5962 15.3C38.6363 13.54 40.4763 10.36 42.1363 10.36C42.5963 10.36 42.9362 10.6 42.9362 11.34C42.9362 12.28 42.3563 13.3 42.3563 14.12C42.3563 14.86 42.8163 15.4 43.7563 15.4C45.2563 15.4 46.3763 13.98 47.2163 12.02L46.9963 11.76C46.2563 13.24 45.1963 14.88 44.1963 14.88C43.8563 14.88 43.5963 14.68 43.5963 14.12C43.5963 13.14 44.4163 12.2 44.4163 10.96C44.4163 10.06 43.9763 9.16 42.9362 9.16C41.4163 9.16 39.8363 11.06 38.7763 12.68C39.1363 11.58 39.4163 10.46 39.4163 10.04C39.4163 9.72 39.2363 9.52 38.8763 9.52C38.4963 9.52 38.1163 9.76 37.9563 9.94C37.9363 11.68 36.5362 14.62 36.5362 14.86Z" fill="#8C30F5"/>
</svg>
